<svg width="134" height="202" viewBox="0 0 134 202" fill="none" xmlns="http://www.w3.org/2000/svg">
<rect x="44" y="67" width="46" height="68" rx="23" fill="#28887A"/>
<path d="M4.905 71.5745C4.905 70.444 5.57 69.5795 6.539 69.361L6.7575 69.855C5.9785 70.045 5.4655 70.71 5.4655 71.5745C5.4655 72.382 5.912 73.0565 6.7575 73.0565C7.5555 73.0565 7.8975 72.477 8.23 71.641L8.4105 71.185C8.8095 70.1685 9.3795 69.646 10.187 69.646C11.1845 69.646 11.84 70.4535 11.84 71.508C11.84 72.6005 11.175 73.237 10.4435 73.484L10.2155 73.0185C10.8615 72.762 11.289 72.287 11.289 71.527C11.289 70.7955 10.871 70.235 10.187 70.235C9.6455 70.235 9.2275 70.558 8.9045 71.394L8.724 71.85C8.2965 72.914 7.8215 73.6645 6.7575 73.6645C5.5605 73.6645 4.905 72.6955 4.905 71.5745ZM4.905 77.6554C4.905 75.7744 6.3205 74.2354 8.3725 74.2354C10.4245 74.2354 11.84 75.7649 11.84 77.6459C11.84 78.4344 11.593 79.4889 10.586 80.2394L10.2535 79.8024C11.0705 79.1849 11.27 78.3204 11.27 77.6649C11.27 76.1069 10.111 74.8339 8.3725 74.8339C6.634 74.8339 5.475 76.1069 5.475 77.6744C5.475 78.3204 5.6745 79.1849 6.4915 79.8024L6.159 80.2394C5.152 79.4889 4.905 78.4439 4.905 77.6554ZM5 84.8871L7.4605 83.2246L7.4605 83.0821L7.4605 81.5811L5 81.5811L5 80.9921L11.745 80.9921L11.745 83.0821C11.745 84.4976 10.8235 85.3336 9.598 85.3336C8.5815 85.3336 7.8025 84.7826 7.546 83.8136L5 85.5426L5 84.8871ZM8.002 81.5811L8.002 83.0061C8.002 84.0701 8.572 84.7256 9.598 84.7256C10.624 84.7256 11.1845 84.0701 11.1845 83.0061L11.1845 81.5811L8.002 81.5811ZM4.905 89.1784C4.905 87.3829 6.292 85.7774 8.3725 85.7774C10.453 85.7774 11.84 87.3829 11.84 89.1784C11.84 90.9834 10.453 92.5794 8.3725 92.5794C6.292 92.5794 4.905 90.9834 4.905 89.1784ZM8.3725 86.3759C6.615 86.3759 5.475 87.7154 5.475 89.1784C5.475 90.6414 6.615 91.9809 8.3725 91.9809C10.13 91.9809 11.27 90.6414 11.27 89.1784C11.27 87.7154 10.13 86.3759 8.3725 86.3759ZM5 93.4339L11.745 93.4339L11.745 94.0229L5.5605 94.0229L5.5605 97.1199L5 97.1199L5 93.4339ZM5 97.8783L11.745 97.8783L11.745 98.4673L5.5605 98.4673L5.5605 101.564L5 101.564L5 97.8783ZM5 104.141L11.745 104.141L11.745 105.965C11.745 108.017 10.3865 109.309 8.3725 109.309C6.3585 109.309 5 108.017 5 105.965L5 104.141ZM5.5605 104.73L5.5605 105.946C5.5605 107.713 6.672 108.701 8.3725 108.701C10.073 108.701 11.1845 107.713 11.1845 105.946L11.1845 104.73L5.5605 104.73ZM4.905 113.376C4.905 111.581 6.292 109.975 8.3725 109.975C10.453 109.975 11.84 111.581 11.84 113.376C11.84 115.181 10.453 116.777 8.3725 116.777C6.292 116.777 4.905 115.181 4.905 113.376ZM8.3725 110.574C6.615 110.574 5.475 111.913 5.475 113.376C5.475 114.839 6.615 116.179 8.3725 116.179C10.13 116.179 11.27 114.839 11.27 113.376C11.27 111.913 10.13 110.574 8.3725 110.574ZM5 118.971L11.745 116.948L11.745 117.575L6.0735 119.256L11.745 121.071L11.745 121.555L6.0735 123.379L11.745 125.061L11.745 125.688L5 123.655L5 123.17L10.7 121.318L5 119.456L5 118.971ZM5 126.353L11.745 126.353L11.745 126.961L5.9975 131.055L5.9975 131.103L11.745 131.103L11.745 131.692L5 131.692L5 131.084L10.7475 126.989L10.7475 126.942L5 126.942L5 126.353Z" fill="black"/>
<path d="M129.095 130.425C129.095 131.556 128.43 132.42 127.461 132.639L127.242 132.145C128.021 131.955 128.534 131.29 128.534 130.425C128.534 129.618 128.088 128.943 127.242 128.943C126.444 128.943 126.102 129.523 125.77 130.359L125.589 130.815C125.19 131.831 124.62 132.354 123.813 132.354C122.815 132.354 122.16 131.546 122.16 130.492C122.16 129.399 122.825 128.763 123.556 128.516L123.784 128.981C123.138 129.238 122.711 129.713 122.711 130.473C122.711 131.204 123.129 131.765 123.813 131.765C124.354 131.765 124.772 131.442 125.095 130.606L125.276 130.15C125.703 129.086 126.178 128.335 127.242 128.335C128.439 128.335 129.095 129.304 129.095 130.425ZM129.095 124.345C129.095 126.226 127.679 127.765 125.627 127.765C123.575 127.765 122.16 126.235 122.16 124.354C122.16 123.566 122.407 122.511 123.414 121.761L123.746 122.198C122.929 122.815 122.73 123.68 122.73 124.335C122.73 125.893 123.889 127.166 125.627 127.166C127.366 127.166 128.525 125.893 128.525 124.326C128.525 123.68 128.325 122.815 127.508 122.198L127.841 121.761C128.848 122.511 129.095 123.556 129.095 124.345ZM129 117.113L126.539 118.775L126.539 118.918L126.539 120.419L129 120.419L129 121.008L122.255 121.008L122.255 118.918C122.255 117.502 123.176 116.666 124.402 116.666C125.418 116.666 126.197 117.217 126.454 118.186L129 116.457L129 117.113ZM125.998 120.419L125.998 118.994C125.998 117.93 125.428 117.274 124.402 117.274C123.376 117.274 122.815 117.93 122.815 118.994L122.815 120.419L125.998 120.419ZM129.095 112.822C129.095 114.617 127.708 116.223 125.627 116.223C123.547 116.223 122.16 114.617 122.16 112.822C122.16 111.017 123.547 109.421 125.627 109.421C127.708 109.421 129.095 111.017 129.095 112.822ZM125.627 115.624C127.385 115.624 128.525 114.285 128.525 112.822C128.525 111.359 127.385 110.019 125.627 110.019C123.87 110.019 122.73 111.359 122.73 112.822C122.73 114.285 123.87 115.624 125.627 115.624ZM129 108.566L122.255 108.566L122.255 107.977L128.439 107.977L128.439 104.88L129 104.88L129 108.566ZM129 104.122L122.255 104.122L122.255 103.533L128.439 103.533L128.439 100.436L129 100.436L129 104.122ZM129 97.8585L122.255 97.8585L122.255 96.0345C122.255 93.9825 123.613 92.6905 125.627 92.6905C127.641 92.6905 129 93.9825 129 96.0345L129 97.8585ZM128.439 97.2695L128.439 96.0535C128.439 94.2865 127.328 93.2985 125.627 93.2985C123.927 93.2985 122.815 94.2865 122.815 96.0535L122.815 97.2695L128.439 97.2695ZM129.095 88.6238C129.095 90.4193 127.708 92.0248 125.627 92.0248C123.547 92.0248 122.16 90.4193 122.16 88.6238C122.16 86.8188 123.547 85.2228 125.627 85.2228C127.708 85.2228 129.095 86.8188 129.095 88.6238ZM125.627 91.4263C127.385 91.4263 128.525 90.0868 128.525 88.6238C128.525 87.1608 127.385 85.8213 125.627 85.8213C123.87 85.8213 122.73 87.1608 122.73 88.6238C122.73 90.0868 123.87 91.4263 125.627 91.4263ZM129 83.0287L122.255 85.0522L122.255 84.4252L127.926 82.7437L122.255 80.9292L122.255 80.4447L127.926 78.6207L122.255 76.9392L122.255 76.3122L129 78.3452L129 78.8297L123.3 80.6822L129 82.5442L129 83.0287ZM129 75.6471L122.255 75.6471L122.255 75.0391L128.002 70.9446L128.002 70.8971L122.255 70.8971L122.255 70.3081L129 70.3081L129 70.9161L123.252 75.0106L123.252 75.0581L129 75.0581L129 75.6471Z" fill="black"/>
<path d="M67 151L69.8867 146L64.1132 146L67 151ZM67 51L66.5 51L66.5 146.5L67 146.5L67.5 146.5L67.5 51L67 51Z" fill="#030605"/>
<path d="M1 135V135C1 171.451 30.5492 201 67 201V201C103.451 201 133 171.451 133 135V135" stroke="#030605"/>
<path d="M133 67V67C133 30.5492 103.451 0.999997 67 0.999994V0.999994C30.5492 0.999991 1 30.5492 1 67V67" stroke="#030605"/>
<path d="M26.3872 146.654C26.0009 145.838 26.1835 145.047 26.8483 144.564L27.1925 144.958C26.6995 145.36 26.5942 145.914 26.8422 146.438C27.0699 146.919 27.538 147.286 28.0961 147.022C28.5511 146.806 28.6108 146.399 28.5833 145.698L28.5581 145.289C28.5089 144.409 28.7959 143.905 29.2853 143.673C29.9464 143.36 30.6657 143.702 31.0154 144.441C31.3326 145.111 31.2033 145.792 30.7098 146.215L30.3732 145.859C30.6818 145.534 30.8007 145.142 30.5771 144.669C30.3738 144.24 29.9757 143.977 29.5292 144.188C29.1944 144.347 29.0344 144.675 29.0678 145.3L29.0899 145.658C29.1381 146.581 29.0653 147.204 28.3441 147.545C27.4769 147.956 26.7368 147.392 26.3872 146.654Z" fill="#030605"/>
<path d="M32.1809 156.012C31.3872 155.029 31.3044 153.46 32.5757 152.433C33.8618 151.395 35.3785 151.806 36.1722 152.789C36.7094 153.454 36.9034 154.36 36.5511 155.194L36.065 155C36.3292 154.36 36.188 153.656 35.7703 153.138C35.1555 152.377 33.9672 152.054 32.9398 152.884C31.9272 153.702 31.9921 154.931 32.6068 155.693C33.0246 156.21 33.6831 156.496 34.365 156.373L34.4519 156.889C33.5625 157.058 32.7181 156.677 32.1809 156.012Z" fill="#030605"/>
<path d="M38.4005 162.254L41.452 158.369L41.9077 158.727L41.1976 159.631C41.7653 159.231 42.5117 159.081 43.229 159.644C43.3186 159.714 43.3725 159.769 43.4131 159.825L43.0786 160.251C43.0305 160.189 42.9841 160.14 42.9019 160.076C42.1922 159.518 41.1918 159.638 40.4758 160.55L38.8562 162.612L38.4005 162.254Z" fill="#030605"/>
<path d="M47.9654 168.466C46.8138 167.924 46.0547 166.548 46.7549 165.061C47.4551 163.574 48.9994 163.283 50.1511 163.825C51.3028 164.367 52.0618 165.743 51.3616 167.23C50.6614 168.717 49.1171 169.008 47.9654 168.466ZM47.2792 165.308C46.7206 166.494 47.2897 167.56 48.1921 167.985C49.0945 168.41 50.2788 168.169 50.8374 166.983C51.3959 165.797 50.8269 164.731 49.9244 164.306C49.022 163.881 47.8377 164.122 47.2792 165.308Z" fill="#030605"/>
<path d="M56.27 171.343L57.8536 164.787L58.4169 164.923L56.8333 171.479L56.27 171.343Z" fill="#030605"/>
<path d="M63.2437 172.518L63.776 165.794L64.3537 165.84L63.8214 172.564L63.2437 172.518Z" fill="#030605"/>
<path d="M82.9075 169.907L82.3547 170.081L82.0383 169.075L82.0111 169.084C81.9302 169.776 81.3591 170.494 80.471 170.773C79.2929 171.143 77.8678 170.665 77.3634 169.061C76.8589 167.457 77.7539 166.25 78.932 165.879C79.8201 165.6 80.699 165.861 81.1618 166.383L81.189 166.374L80.3311 163.647L80.8839 163.473L82.9075 169.907ZM77.9162 168.888C78.3266 170.193 79.4595 170.533 80.3839 170.243C81.3083 169.952 82.0393 169.015 81.6318 167.719C81.2242 166.423 80.0884 166.073 79.1641 166.364C78.2397 166.655 77.5058 167.583 77.9162 168.888Z" fill="#030605"/>
<path d="M90.6834 166.142C89.6001 166.81 88.0328 166.695 87.1696 165.296C86.3064 163.898 86.9057 162.445 87.989 161.776C89.0723 161.108 90.6396 161.223 91.5028 162.622C92.366 164.02 91.7667 165.473 90.6834 166.142ZM87.6628 164.992C88.3513 166.108 89.5551 166.213 90.404 165.689C91.2528 165.165 91.6982 164.042 91.0096 162.926C90.3211 161.811 89.1173 161.705 88.2684 162.229C87.4196 162.753 86.9742 163.876 87.6628 164.992Z" fill="#030605"/>
<path d="M101.464 156.775L97.1885 155.198L99.1814 159.296L98.818 159.698L93.8934 157.777L94.2886 157.34L98.4465 158.99L96.469 154.932L96.8516 154.509L101.086 156.074L99.032 152.1L99.4273 151.664L101.827 156.373L101.464 156.775Z" fill="#030605"/>
<path d="M106.403 149.675L101.962 147.511L102.216 146.99L102.993 147.369C102.666 146.934 102.481 146.231 102.88 145.411C103.342 144.463 104.327 143.939 105.651 144.584L108.264 145.858L108.01 146.379L105.456 145.134C104.44 144.639 103.667 145.012 103.292 145.781C102.921 146.541 103.087 147.414 104.104 147.91L106.657 149.154L106.403 149.675Z" fill="#030605"/>
<path d="M107.978 55.3463C108.364 56.162 108.182 56.9527 107.517 57.4357L107.173 57.0417C107.666 56.64 107.771 56.0856 107.523 55.5618C107.295 55.081 106.827 54.714 106.269 54.9783C105.814 55.1938 105.754 55.6005 105.782 56.3023L105.807 56.7108C105.856 57.5915 105.569 58.0953 105.08 58.327C104.419 58.6401 103.7 58.2975 103.35 57.5591C103.033 56.8894 103.162 56.208 103.655 55.7851L103.992 56.1408C103.683 56.4656 103.565 56.8583 103.788 57.3305C103.991 57.7598 104.39 58.0233 104.836 57.8119C105.171 57.6533 105.331 57.3253 105.297 56.6999L105.275 56.3424C105.227 55.4193 105.3 54.7961 106.021 54.4546C106.888 54.0439 107.628 54.6079 107.978 55.3463Z" fill="#030605"/>
<path d="M102.184 45.988C102.978 46.9711 103.061 48.5404 101.79 49.5669C100.503 50.6054 98.9868 50.1939 98.193 49.2108C97.6559 48.5456 97.4619 47.64 97.8142 46.806L98.3002 46.9997C98.036 47.6403 98.1772 48.3444 98.595 48.8618C99.2097 49.6231 100.398 49.9456 101.425 49.1161C102.438 48.2984 102.373 47.0688 101.758 46.3075C101.341 45.7901 100.682 45.5037 100 45.627L99.9133 45.1111C100.803 44.9424 101.647 45.3228 102.184 45.988Z" fill="#030605"/>
<path d="M95.9647 39.7462L92.9133 43.631L92.4575 43.2731L93.1676 42.3691C92.5999 42.7688 91.8535 42.9194 91.1363 42.356C91.0466 42.2856 90.9927 42.2312 90.9522 42.1752L91.2867 41.7494C91.3347 41.8112 91.3811 41.8598 91.4633 41.9243C92.173 42.4818 93.1735 42.3616 93.8894 41.4502L95.509 39.3882L95.9647 39.7462Z" fill="#030605"/>
<path d="M86.3998 33.5339C87.5515 34.0762 88.3105 35.4523 87.6103 36.9392C86.9101 38.426 85.3658 38.7174 84.2142 38.175C83.0625 37.6326 82.3034 36.2566 83.0036 34.7697C83.7038 33.2828 85.2481 32.9915 86.3998 33.5339ZM87.0861 36.6923C87.6446 35.5062 87.0756 34.4402 86.1731 34.0152C85.2707 33.5902 84.0864 33.8306 83.5279 35.0166C82.9693 36.2027 83.5384 37.2687 84.4408 37.6937C85.3433 38.1187 86.5275 37.8783 87.0861 36.6923Z" fill="#030605"/>
<path d="M78.0952 30.6568L76.5117 37.2133L75.9484 37.0772L77.5319 30.5208L78.0952 30.6568Z" fill="#030605"/>
<path d="M71.1215 29.4816L70.5892 36.2055L70.0116 36.1598L70.5438 29.4359L71.1215 29.4816Z" fill="#030605"/>
<path d="M51.4578 32.0929L52.0106 31.9191L52.3269 32.925L52.3541 32.9165C52.435 32.2238 53.0061 31.5064 53.8942 31.2271C55.0723 30.8566 56.4974 31.3346 57.0018 32.9386C57.5063 34.5427 56.6114 35.7503 55.4333 36.1208C54.5451 36.4001 53.6663 36.1387 53.2034 35.6171L53.1762 35.6256L54.0341 38.3534L53.4813 38.5272L51.4578 32.0929ZM56.449 33.1125C56.0386 31.8075 54.9057 31.4667 53.9813 31.7574C53.057 32.0481 52.3259 32.9851 52.7335 34.281C53.141 35.5769 54.2768 35.9268 55.2012 35.6361C56.1255 35.3454 56.8595 34.4175 56.449 33.1125Z" fill="#030605"/>
<path d="M43.6818 35.8582C44.7651 35.1896 46.3324 35.3051 47.1956 36.7037C48.0588 38.1022 47.4595 39.555 46.3762 40.2236C45.2929 40.8922 43.7257 40.7767 42.8625 39.3781C41.9993 37.9795 42.5986 36.5268 43.6818 35.8582ZM46.7025 37.008C46.0139 35.8924 44.8101 35.787 43.9613 36.3109C43.1124 36.8348 42.667 37.9581 43.3556 39.0737C44.0442 40.1894 45.248 40.2948 46.0968 39.7709C46.9456 39.247 47.391 38.1237 46.7025 37.008Z" fill="#030605"/>
<path d="M32.9014 45.2252L37.1767 46.8016L35.1838 42.7038L35.5472 42.3024L40.4719 44.2231L40.0766 44.6598L35.9187 43.0103L37.8962 47.0685L37.5137 47.491L33.2793 45.9261L35.3333 49.8997L34.938 50.3364L32.538 45.6266L32.9014 45.2252Z" fill="#030605"/>
<path d="M27.9623 52.3248L32.4028 54.4893L32.1489 55.0102L31.3718 54.6314C31.6991 55.0658 31.8846 55.7692 31.485 56.589C31.0229 57.5369 30.0382 58.0609 28.7146 57.4157L26.1016 56.1419L26.3555 55.621L28.9088 56.8656C29.925 57.361 30.6987 56.9878 31.0734 56.2192C31.4438 55.4592 31.2778 54.5857 30.2616 54.0903L27.7083 52.8457L27.9623 52.3248Z" fill="#030605"/>
</svg>
