<?xml version="1.0" encoding="UTF-8"?>
<svg version="1.1" xmlns="http://www.w3.org/2000/svg" width="120" height="36">
<path d="M0 0 C3.66295935 0.67278845 5.37978578 2.0375925 8.0625 4.5625 C8.454375 4.0675 8.84625 3.5725 9.25 3.0625 C11.61341715 1.10656857 13.07685003 1.32042027 16.0625 1.5625 C16.0625 3.2125 16.0625 4.8625 16.0625 6.5625 C16.7225 6.5625 17.3825 6.5625 18.0625 6.5625 C18.3925 4.9125 18.7225 3.2625 19.0625 1.5625 C23.8125 0.4375 23.8125 0.4375 26.0625 1.5625 C26.0625 5.5225 26.0625 9.4825 26.0625 13.5625 C26.7225 13.5625 27.3825 13.5625 28.0625 13.5625 C27.4025 15.2125 26.7425 16.8625 26.0625 18.5625 C23.6875 18.6875 23.6875 18.6875 21.0625 18.5625 C20.4025 17.9025 19.7425 17.2425 19.0625 16.5625 C18.0725 17.2225 17.0825 17.8825 16.0625 18.5625 C14.7425 18.5625 13.4225 18.5625 12.0625 18.5625 C9.83326223 14.23515609 10.13779447 11.27849818 11.0625 6.5625 C10.0725 6.5625 9.0825 6.5625 8.0625 6.5625 C8.0625 7.47 8.0625 8.3775 8.0625 9.3125 C8.0625 11.72916667 8.0625 14.14583333 8.0625 16.5625 C0.32384446 18.69730153 -6.93773956 18.76733028 -14.9375 18.5625 C-16.60222173 14.02581559 -17.06785344 11.30998444 -15.9375 6.5625 C-16.9275 6.5625 -17.9175 6.5625 -18.9375 6.5625 C-18.6075 5.5725 -18.2775 4.5825 -17.9375 3.5625 C-15 2.3125 -15 2.3125 -11.9375 1.5625 C-11.2775 1.8925 -10.6175 2.2225 -9.9375 2.5625 C-9.9375 6.1925 -9.9375 9.8225 -9.9375 13.5625 C-8.9475 13.5625 -7.9575 13.5625 -6.9375 13.5625 C-6.6075 11.9125 -6.2775 10.2625 -5.9375 8.5625 C-3.9575 8.2325 -1.9775 7.9025 0.0625 7.5625 C0.0625 6.9025 0.0625 6.2425 0.0625 5.5625 C-2.2475 5.5625 -4.5575 5.5625 -6.9375 5.5625 C-3.79412211 0.72653402 -3.79412211 0.72653402 0 0 Z M18.0625 8.5625 C18.0625 10.2125 18.0625 11.8625 18.0625 13.5625 C18.3925 13.5625 18.7225 13.5625 19.0625 13.5625 C19.0625 11.9125 19.0625 10.2625 19.0625 8.5625 C18.7325 8.5625 18.4025 8.5625 18.0625 8.5625 Z M0.0625 9.5625 C1.0625 12.5625 1.0625 12.5625 1.0625 12.5625 Z " fill="#1E4D42" transform="translate(66.9375,15.4375)"/>
<path d="M0 0 C0.33 1.65 0.66 3.3 1 5 C-0.65 6.32 -2.3 7.64 -4 9 C-1.525 10.98 -1.525 10.98 1 13 C1.78375 12.030625 2.5675 11.06125 3.375 10.0625 C5.75710182 7.11621617 6.98028301 6.1108388 10.875 5.6875 C14 6 14 6 16.375 7.5625 C18.6899636 11.0349454 18.69606004 12.89324578 18 17 C16.40193052 19.85167875 14.59783867 22.01076561 12 24 C8.125 24.9375 8.125 24.9375 5 25 C4.01 23.68 3.02 22.36 2 21 C1.443125 21.28875 0.88625 21.5775 0.3125 21.875 C-0.450625 22.24625 -1.21375 22.6175 -2 23 C-2.7425 23.391875 -3.485 23.78375 -4.25 24.1875 C-8.52354236 25.45013752 -12.96239715 25.01880143 -17 23 C-16.25 18.25 -16.25 18.25 -14 16 C-11.875 16.375 -11.875 16.375 -10 17 C-10 17.66 -10 18.32 -10 19 C-8.68 18.67 -7.36 18.34 -6 18 C-7.28944463 15.42111073 -8.383141 15.28564619 -11 14.1875 C-14.82263053 12.32095428 -14.82263053 12.32095428 -16.3125 9.625 C-15.8517998 5.75511833 -13.87970426 3.44517088 -11 1 C-6.94410499 -0.94344969 -4.31169209 -1.26814473 0 0 Z M7 11 C6.67164344 14.67271044 6.67164344 14.67271044 8.375 17.8125 C9.93368783 19.1966722 9.93368783 19.1966722 12 19 C12.32835656 15.32728956 12.32835656 15.32728956 10.625 12.1875 C9.06631217 10.8033278 9.06631217 10.8033278 7 11 Z " fill="#194D41" transform="translate(18,10)"/>
<path d="M0 0 C3.29992619 1.43842936 4.00938967 2.77784625 5.4375 6.0625 C5.56125 7.856875 5.56125 7.856875 5.6875 9.6875 C6.03410792 13.05413323 6.03410792 13.05413323 8.05078125 14.17578125 C10.2153241 15.12938296 10.2153241 15.12938296 13.4375 16.0625 C12.06678 21.54537998 9.61306469 26.22500073 5.4375 30.0625 C1.59758627 31.48522796 -1.6627984 31.36240053 -5.5625 30.0625 C-5.8925 28.4125 -6.2225 26.7625 -6.5625 25.0625 C-7.5525 24.7325 -8.5425 24.4025 -9.5625 24.0625 C-9.541875 23.010625 -9.52125 21.95875 -9.5 20.875 C-9.38257487 17.24491066 -9.38257487 17.24491066 -10.3125 14.625 C-10.80505186 9.57634342 -7.56742198 5.39159036 -4.625 1.5 C-2.5625 0.0625 -2.5625 0.0625 0 0 Z " fill="#164A3E" transform="translate(105.5625,1.9375)"/>
<path d="M0 0 C1.56041016 0.00580078 1.56041016 0.00580078 3.15234375 0.01171875 C5.97383812 0.30333629 7.6598251 0.8593159 10.0625 2.3125 C9.375 4.25 9.375 4.25 8.0625 6.3125 C5.4375 7.0625 5.4375 7.0625 3.0625 7.3125 C2.93875 8.116875 2.815 8.92125 2.6875 9.75 C2.48125 10.595625 2.275 11.44125 2.0625 12.3125 C1.0725 12.8075 1.0725 12.8075 0.0625 13.3125 C-0.40273063 15.20783342 -0.40273063 15.20783342 -0.5625 17.375 C-0.68625 18.674375 -0.81 19.97375 -0.9375 21.3125 C-0.2775 21.3125 0.3825 21.3125 1.0625 21.3125 C0.0725 23.7875 0.0725 23.7875 -0.9375 26.3125 C-2.5875 26.3125 -4.2375 26.3125 -5.9375 26.3125 C-7.03978696 21.90335217 -7.01404536 17.82867599 -6.9375 13.3125 C-7.9275 12.9825 -8.9175 12.6525 -9.9375 12.3125 C-9.85003716 10.87388706 -9.74184652 9.43652492 -9.625 8 C-9.56699219 7.19949219 -9.50898437 6.39898437 -9.44921875 5.57421875 C-8.22667457 0.17076011 -5.07230324 -0.08150796 0 0 Z " fill="#18493C" transform="translate(45.9375,7.6875)"/>
<path d="M0 0 C2.375 0.125 2.375 0.125 5 1 C6.875 3.125 6.875 3.125 8 6 C7.6875 9.8125 7.6875 9.8125 7 13 C4.69 13 2.38 13 0 13 C0 11.02 0 9.04 0 7 C-0.6496875 8.6396875 -0.6496875 8.6396875 -1.3125 10.3125 C-2.49495641 13.09408793 -3.60800043 15.06361939 -6 17 C-6.66 16.34 -7.32 15.68 -8 15 C-8 8.86770942 -4.19427088 4.19427088 0 0 Z " fill="#15483C" transform="translate(103,2)"/>
<path d="M0 0 C2.375 1.5625 2.375 1.5625 4 4 C4.57206406 7.43238437 4.77845508 9.7690174 2.87109375 12.78515625 C1.65295598 14.25316844 0.33211922 15.6345778 -1 17 C-2.32 16.01 -3.64 15.02 -5 14 C-4.67 13.34 -4.34 12.68 -4 12 C-3.34 12.33 -2.68 12.66 -2 13 C-2.77479736 10.00847418 -2.77479736 10.00847418 -4 7 C-7.28976808 5.90341064 -8.71303767 6.20046862 -12 7 C-8.93921299 1.46143304 -6.54408445 -0.80131646 0 0 Z " fill="#174A3F" transform="translate(32,16)"/>
<path d="M0 0 C0 3.63 0 7.26 0 11 C0.99 11.33 1.98 11.66 3 12 C1.8125 14 1.8125 14 0 16 C-2.6875 16.25 -2.6875 16.25 -5 16 C-6.80619523 11.53763531 -7.11658501 8.68965706 -6 4 C-6.99 4 -7.98 4 -9 4 C-8 1 -8 1 -6.1875 -0.25 C-4 -1 -4 -1 0 0 Z " fill="#214D42" transform="translate(57,18)"/>
<path d="M0 0 C1.65 0 3.3 0 5 0 C5 3.63 5 7.26 5 11 C5.66 11 6.32 11 7 11 C6.34 12.65 5.68 14.3 5 16 C3.35 16 1.7 16 0 16 C-1.33128076 13.33743847 -1.41344012 10.96127034 -1.6875 8 C-1.79449219 6.9275 -1.90148437 5.855 -2.01171875 4.75 C-2 2 -2 2 0 0 Z " fill="#1E4F43" transform="translate(88,18)"/>
<path d="M0 0 C0.94875 0.350625 1.8975 0.70125 2.875 1.0625 C2.545 2.7125 2.215 4.3625 1.875 6.0625 C1.215 6.0625 0.555 6.0625 -0.125 6.0625 C-0.455 6.7225 -0.785 7.3825 -1.125 8.0625 C3.33 7.5675 3.33 7.5675 7.875 7.0625 C7.875 6.4025 7.875 5.7425 7.875 5.0625 C8.535 5.0625 9.195 5.0625 9.875 5.0625 C9.545 6.0525 9.215 7.0425 8.875 8.0625 C2.99085767 10.63681227 -2.9572532 10.04150743 -9.125 9.0625 C-8.50802681 7.57996733 -7.88116104 6.10154826 -7.25 4.625 C-6.72792969 3.38943359 -6.72792969 3.38943359 -6.1953125 2.12890625 C-4.44867396 -1.24325356 -3.6197051 -1.08591153 0 0 Z M0.875 1.0625 C1.875 4.0625 1.875 4.0625 1.875 4.0625 Z " fill="#16463B" transform="translate(66.125,23.9375)"/>
<path d="M0 0 C0.6875 2.3125 0.6875 2.3125 1 5 C-0.1875 6.875 -0.1875 6.875 -2 8 C-4.97332891 7.71225849 -7.38809637 6.39923409 -10 5 C-9.67 3.35 -9.34 1.7 -9 0 C-5.67465243 -1.10844919 -3.37817425 -0.84454356 0 0 Z " fill="#235244" transform="translate(18,10)"/>
<path d="M0 0 C2.125 0.375 2.125 0.375 4 1 C4 1.66 4 2.32 4 3 C5.32 3.33 6.64 3.66 8 4 C7.01 4 6.02 4 5 4 C4.67 5.32 4.34 6.64 4 8 C4.99 8.33 5.98 8.66 7 9 C-0.75 8.125 -0.75 8.125 -3 7 C-2.25 2.25 -2.25 2.25 0 0 Z " fill="#134439" transform="translate(4,26)"/>
<path d="M0 0 C4.28571429 1.42857143 4.28571429 1.42857143 6 4 C5.6875 7.6875 5.6875 7.6875 5 11 C4.01 11.33 3.02 11.66 2 12 C1.34 11.67 0.68 11.34 0 11 C-0.81309902 7.08234111 -1.37553268 3.82092412 0 0 Z " fill="#1B5244" transform="translate(79,20)"/>
<path d="M0 0 C0.66 0.66 1.32 1.32 2 2 C-1 4 -1 4 -4 4 C-5.010625 4.515625 -6.02125 5.03125 -7.0625 5.5625 C-8.031875 6.036875 -9.00125 6.51125 -10 7 C-10.66 6.67 -11.32 6.34 -12 6 C-8.08864078 0.91523302 -6.51692403 -0.40730775 0 0 Z M-3 4 C-1 5 -1 5 -1 5 Z " fill="#124238" transform="translate(32,16)"/>
<path d="M0 0 C0.99 0 1.98 0 3 0 C3 2.64 3 5.28 3 8 C3.99 8.33 4.98 8.66 6 9 C4.625 10.5 4.625 10.5 3 12 C2.34 12 1.68 12 1 12 C1 11.34 1 10.68 1 10 C0.34 9.67 -0.32 9.34 -1 9 C-0.67 6.03 -0.34 3.06 0 0 Z " fill="#2B584D" transform="translate(54,21)"/>
<path d="M0 0 C0.33 1.65 0.66 3.3 1 5 C1.99 5.33 2.98 5.66 4 6 C4.33 6.99 4.66 7.98 5 9 C4.34 9 3.68 9 3 9 C3 8.34 3 7.68 3 7 C1.35 7 -0.3 7 -2 7 C-2 6.34 -2 5.68 -2 5 C-2.99 5 -3.98 5 -5 5 C-5 6.32 -5 7.64 -5 9 C-5.66 9 -6.32 9 -7 9 C-6.53149863 4.78348764 -4.94559315 0 0 0 Z " fill="#1B4539" transform="translate(9,11)"/>
<path d="M0 0 C0.33 0 0.66 0 1 0 C1 9 1 9 0 11 C-3.0625 11.625 -3.0625 11.625 -6 12 C-6 11.34 -6 10.68 -6 10 C-5.34 10 -4.68 10 -4 10 C-3.79503906 9.36191406 -3.59007813 8.72382813 -3.37890625 8.06640625 C-3.10949219 7.24011719 -2.84007813 6.41382813 -2.5625 5.5625 C-2.29566406 4.73878906 -2.02882813 3.91507813 -1.75390625 3.06640625 C-1 1 -1 1 0 0 Z " fill="#33695F" transform="translate(103,8)"/>
<path d="M0 0 C0 0.66 0 1.32 0 2 C-0.99 2.33 -1.98 2.66 -3 3 C-3.33 3.66 -3.66 4.32 -4 5 C-3.34 5.33 -2.68 5.66 -2 6 C-2.99 6.33 -3.98 6.66 -5 7 C-5 6.34 -5 5.68 -5 5 C-5.99 5 -6.98 5 -8 5 C-8 6.98 -8 8.96 -8 11 C-8.33 11 -8.66 11 -9 11 C-9.48461538 4.7 -9.48461538 4.7 -7.3125 1.5625 C-4.61589191 -0.25953249 -3.18873549 -0.35430394 0 0 Z " fill="#0F372F" transform="translate(83,17)"/>
<path d="M0 0 C4.75 0.875 4.75 0.875 7 2 C6.3125 3.9375 6.3125 3.9375 5 6 C2.5625 6.875 2.5625 6.875 0 7 C-0.99 6.34 -1.98 5.68 -3 5 C-1.35 4.34 0.3 3.68 2 3 C1.34 2.01 0.68 1.02 0 0 Z " fill="#1C4139" transform="translate(49,8)"/>
<path d="M0 0 C0.66 0.33 1.32 0.66 2 1 C1.67 1.33 1.34 1.66 1 2 C0.78673597 7.6047709 0.78673597 7.6047709 2 13 C1.67 13.66 1.34 14.32 1 15 C1.99 15.33 2.98 15.66 4 16 C2.68 16 1.36 16 0 16 C-1.33128076 13.33743847 -1.41344012 10.96127034 -1.6875 8 C-1.79449219 6.9275 -1.90148437 5.855 -2.01171875 4.75 C-2 2 -2 2 0 0 Z " fill="#315F55" transform="translate(88,18)"/>
<path d="M0 0 C1.32 0 2.64 0 4 0 C3.814375 0.61875 3.62875 1.2375 3.4375 1.875 C2.76313824 4.04160178 2.76313824 4.04160178 4 6 C1.03 5.505 1.03 5.505 -2 5 C-2 2 -2 2 0 0 Z " fill="#0F4C3B" transform="translate(103,25)"/>
<path d="M0 0 C2.97 0.495 2.97 0.495 6 1 C4.25 3.0625 4.25 3.0625 2 5 C-0.25 4.75 -0.25 4.75 -2 4 C-1.34 2.68 -0.68 1.36 0 0 Z " fill="#3D7065" transform="translate(100,22)"/>
<path d="M0 0 C2.6875 0.875 2.6875 0.875 5 2 C4 4 4 4 0.9375 5.125 C-0.5165625 5.558125 -0.5165625 5.558125 -2 6 C-2.33 4.68 -2.66 3.36 -3 2 C-2.01 1.34 -1.02 0.68 0 0 Z " fill="#205448" transform="translate(47,8)"/>
<path d="M0 0 C1.65 0 3.3 0 5 0 C5.66 1.32 6.32 2.64 7 4 C5.35 4.33 3.7 4.66 2 5 C1.34 3.35 0.68 1.7 0 0 Z " fill="#215246" transform="translate(23,30)"/>
<path d="M0 0 C0.9075 0.103125 1.815 0.20625 2.75 0.3125 C0.77 1.3025 0.77 1.3025 -1.25 2.3125 C-1.25 3.3025 -1.25 4.2925 -1.25 5.3125 C-3.23 5.3125 -5.21 5.3125 -7.25 5.3125 C-4.05 0.38942308 -4.05 0.38942308 0 0 Z " fill="#1C4138" transform="translate(67.25,15.6875)"/>
<path d="M0 0 C0.99 0.33 1.98 0.66 3 1 C2.67 2.65 2.34 4.3 2 6 C-0.475 5.01 -0.475 5.01 -3 4 C-2.01 3.67 -1.02 3.34 0 3 C0 2.01 0 1.02 0 0 Z M1 1 C2 4 2 4 2 4 Z " fill="#094031" transform="translate(66,24)"/>
<path d="M0 0 C2.475 0.495 2.475 0.495 5 1 C5.33 1.99 5.66 2.98 6 4 C4.35 3.67 2.7 3.34 1 3 C0.67 2.01 0.34 1.02 0 0 Z " fill="#1E5347" transform="translate(105,14)"/>
</svg>
