<?xml version="1.0" encoding="UTF-8"?>
<svg version="1.1" xmlns="http://www.w3.org/2000/svg" width="120" height="36">
<path d="M0 0 C39.6 0 79.2 0 120 0 C120 11.88 120 23.76 120 36 C80.4 36 40.8 36 0 36 C0 24.12 0 12.24 0 0 Z " fill="#FAFBFB" transform="translate(0,0)"/>
<path d="M0 0 C2.5 0.3125 2.5 0.3125 5 1 C5.9590625 0.690625 5.9590625 0.690625 6.9375 0.375 C10.18018721 -0.21457949 12.22985332 1.42605302 15 3 C13.25 5.0625 13.25 5.0625 11 7 C8.9375 6.8125 8.9375 6.8125 7 6 C6.01 5.67 5.02 5.34 4 5 C4 5.99 4 6.98 4 8 C5.32 8 6.64 8 8 8 C7.34 9.32 6.68 10.64 6 12 C5.34 12 4.68 12 4 12 C4 14.97 4 17.94 4 21 C4.66 21 5.32 21 6 21 C4.92598892 23.91517292 4.22189824 25.77810176 2 28 C0.12704468 28.24050903 0.12704468 28.24050903 -2.17431641 28.22705078 C-3.46542831 28.22682419 -3.46542831 28.22682419 -4.78262329 28.22659302 C-5.71287323 28.21627045 -6.64312317 28.20594788 -7.6015625 28.1953125 C-8.55316254 28.1924826 -9.50476257 28.18965271 -10.48519897 28.18673706 C-13.53192592 28.17551989 -16.57836154 28.15041263 -19.625 28.125 C-21.68749576 28.11497218 -23.74999612 28.10584599 -25.8125 28.09765625 C-30.87511267 28.07557554 -35.9375069 28.0410353 -41 28 C-40.37377674 23.28718579 -39.82452533 21.01326238 -36 18 C-35.34 18 -34.68 18 -34 18 C-33 19 -32 20 -31 21 C-30.01 21.33 -29.02 21.66 -28 22 C-29.4073206 18.49651241 -30.80472429 17.282141 -34.125 15.5625 C-37.88056343 13.31053509 -37.88056343 13.31053509 -38.9375 10.5625 C-37.44993458 6.49648784 -34.72260058 4.13438682 -31 2 C-27.0625 1.625 -27.0625 1.625 -24 2 C-23.34 3.32 -22.68 4.64 -22 6 C-23.28965176 7.37562854 -24.62689293 8.70766393 -26 10 C-26.66 10 -27.32 10 -28 10 C-28.33 9.34 -28.66 8.68 -29 8 C-29.99 8 -30.98 8 -32 8 C-27.05 11.96 -27.05 11.96 -22 16 C-20.783125 14.659375 -19.56625 13.31875 -18.3125 11.9375 C-16.23828125 9.65234375 -16.23828125 9.65234375 -14 8 C-10.60012709 8.16572497 -9.42275853 8.57724147 -7 11 C-3.62911733 8.72584713 -3.62911733 8.72584713 -2 5 C-2.66 4.67 -3.32 4.34 -4 4 C-2.3125 1.9375 -2.3125 1.9375 0 0 Z " fill="#ECF1F0" transform="translate(41,8)"/>
<path d="M0 0 C2.93956756 1.02245828 4.01456637 1.58307303 5.875 4 C6.16796875 6.26171875 6.16796875 6.26171875 6.0625 8.6875 C6.03542969 9.49574219 6.00835937 10.30398437 5.98046875 11.13671875 C5.92826172 12.05904297 5.92826172 12.05904297 5.875 13 C6.535 13 7.195 13 7.875 13 C7.125 14.9375 7.125 14.9375 5.875 17 C2.92180182 18.23843794 2.00061472 18.04187157 -1.125 17 C-3.13375442 17.27571139 -5.13678687 17.60235737 -7.125 18 C-7.455 17.34 -7.785 16.68 -8.125 16 C-10.435 16.66 -12.745 17.32 -15.125 18 C-17.26086678 14.79619983 -17.35632175 13.98060033 -17.25 10.3125 C-17.23195312 9.50425781 -17.21390625 8.69601563 -17.1953125 7.86328125 C-17.16050781 6.94095703 -17.16050781 6.94095703 -17.125 6 C-18.115 5.67 -19.105 5.34 -20.125 5 C-18.475 3.68 -16.825 2.36 -15.125 1 C-13.805 1.66 -12.485 2.32 -11.125 3 C-11.125 6.3 -11.125 9.6 -11.125 13 C-10.135 13 -9.145 13 -8.125 13 C-7.691875 12.071875 -7.691875 12.071875 -7.25 11.125 C-6.125 9 -6.125 9 -4.125 7 C-3.135 7 -2.145 7 -1.125 7 C-1.125 6.34 -1.125 5.68 -1.125 5 C-3.435 5 -5.745 5 -8.125 5 C-3.97865854 0 -3.97865854 0 0 0 Z " fill="#1C5546" transform="translate(68.125,16)"/>
<path d="M0 0 C0.66 1.32 1.32 2.64 2 4 C0.71034824 5.37562854 -0.62689293 6.70766393 -2 8 C-2.66 8 -3.32 8 -4 8 C-4.33 7.34 -4.66 6.68 -5 6 C-5.99 6 -6.98 6 -8 6 C-7.278125 6.51949219 -6.55625 7.03898437 -5.8125 7.57421875 C-4.4203125 8.62029297 -4.4203125 8.62029297 -3 9.6875 C-1.6078125 10.71423828 -1.6078125 10.71423828 -0.1875 11.76171875 C2 14 2 14 2.4609375 16.62890625 C2 19 2 19 -0.375 21.25 C-3.56280804 23.37520536 -5.22572524 24.15280997 -9 24.1875 C-10.051875 24.20876953 -10.051875 24.20876953 -11.125 24.23046875 C-13 24 -13 24 -15 22 C-14.875 20 -14.875 20 -14 18 C-11.9375 16.75 -11.9375 16.75 -10 16 C-9.566875 16.474375 -9.13375 16.94875 -8.6875 17.4375 C-6.97690387 19.23686957 -6.97690387 19.23686957 -4 20 C-5.4073206 16.49651241 -6.80472429 15.282141 -10.125 13.5625 C-13.88056343 11.31053509 -13.88056343 11.31053509 -14.9375 8.5625 C-12.45074927 1.76538134 -6.99218363 -0.85618575 0 0 Z " fill="#165142" transform="translate(17,10)"/>
<path d="M0 0 C2.97 0.33 5.94 0.66 9 1 C9.33 1.99 9.66 2.98 10 4 C8.02 5.32 6.04 6.64 4 8 C4.66 8.33 5.32 8.66 6 9 C6.37890625 10.99609375 6.37890625 10.99609375 6.5625 13.4375 C6.8061175 16.84628205 6.8061175 16.84628205 8 20 C10.31 19.34 12.62 18.68 15 18 C15.33 18.99 15.66 19.98 16 21 C17.258125 20.649375 18.51625 20.29875 19.8125 19.9375 C22.94716388 19.06390515 23.78282108 18.92760703 27 20 C29.69433317 18.12802546 29.69433317 18.12802546 32 16 C32.99 17.32 33.98 18.64 35 20 C36.65 19.67 38.3 19.34 40 19 C39.05151367 20.97558594 39.05151367 20.97558594 37 23 C33.93512535 23.35498268 31.23510942 23.46603182 28.17578125 23.390625 C26.88367989 23.38213531 26.88367989 23.38213531 25.56547546 23.37347412 C22.81391852 23.3510813 20.06366337 23.3008808 17.3125 23.25 C15.44728443 23.2299387 13.58204845 23.21168728 11.71679688 23.1953125 C7.14402958 23.15120713 2.5722355 23.08216057 -2 23 C-0.68 20.69 0.64 18.38 2 16 C1.34 16 0.68 16 0 16 C-0.63019694 7.80743982 -0.63019694 7.80743982 2 4.4375 C2.66 3.963125 3.32 3.48875 4 3 C2.68 3 1.36 3 0 3 C0 2.01 0 1.02 0 0 Z " fill="#F4F7F6" transform="translate(45,13)"/>
<path d="M0 0 C1.01416992 0.01450195 1.01416992 0.01450195 2.04882812 0.02929688 C6.97140576 0.14195288 6.97140576 0.14195288 9.3125 1.3125 C7.74256215 6.33630113 4.71134258 10.3594983 1.3125 14.3125 C-1.90201269 15.91975635 -5.12362536 15.36998185 -8.6875 15.3125 C-9.3475 13.9925 -10.0075 12.6725 -10.6875 11.3125 C-8.3775 9.6625 -6.0675 8.0125 -3.6875 6.3125 C-4.615625 6.786875 -5.54375 7.26125 -6.5 7.75 C-9.6875 9.3125 -9.6875 9.3125 -12.6875 10.3125 C-13 7.5625 -13 7.5625 -12.6875 4.3125 C-8.72679062 0.07105069 -5.65763082 -0.16069666 0 0 Z " fill="#104D3D" transform="translate(109.6875,16.6875)"/>
<path d="M0 0 C1.32 0.66 2.64 1.32 4 2 C4 5.63 4 9.26 4 13 C4.66 13 5.32 13 6 13 C5.25 14.9375 5.25 14.9375 4 17 C1.875 17.75 1.875 17.75 0 18 C-2.67927341 13.98108988 -2.15601248 11.75838077 -2 7 C-2.66 7 -3.32 7 -4 7 C-4.33 8.98 -4.66 10.96 -5 13 C-4.34 13 -3.68 13 -3 13 C-3.33 13.99 -3.66 14.98 -4 16 C-6.5625 17.1875 -6.5625 17.1875 -9 18 C-11.13586678 14.79619983 -11.23132175 13.98060033 -11.125 10.3125 C-11.10695313 9.50425781 -11.08890625 8.69601563 -11.0703125 7.86328125 C-11.03550781 6.94095703 -11.03550781 6.94095703 -11 6 C-11.99 5.67 -12.98 5.34 -14 5 C-12.25 2.9375 -12.25 2.9375 -10 1 C-7.75 1.25 -7.75 1.25 -6 2 C-6 3.32 -6 4.64 -6 6 C-5.34 6 -4.68 6 -4 6 C-3.896875 5.38125 -3.79375 4.7625 -3.6875 4.125 C-3 2 -3 2 0 0 Z " fill="#1A5445" transform="translate(89,16)"/>
<path d="M0 0 C2.5 0.3125 2.5 0.3125 5 1 C5.639375 0.79375 6.27875 0.5875 6.9375 0.375 C10.18018721 -0.21457949 12.22985332 1.42605302 15 3 C13.25 5.0625 13.25 5.0625 11 7 C8.9375 6.8125 8.9375 6.8125 7 6 C6.01 5.67 5.02 5.34 4 5 C4 5.99 4 6.98 4 8 C5.32 8 6.64 8 8 8 C7.34 9.32 6.68 10.64 6 12 C5.34 12 4.68 12 4 12 C4 14.97 4 17.94 4 21 C4.66 21 5.32 21 6 21 C5.25 22.9375 5.25 22.9375 4 25 C1.9375 25.8125 1.9375 25.8125 0 26 C-1 25 -1 25 -1.09765625 22.05859375 C-1.08605469 20.86363281 -1.07445312 19.66867188 -1.0625 18.4375 C-1.05347656 17.23996094 -1.04445312 16.04242187 -1.03515625 14.80859375 C-1.02355469 13.88175781 -1.01195312 12.95492188 -1 12 C-2.32 12 -3.64 12 -5 12 C-4.690625 11.401875 -4.38125 10.80375 -4.0625 10.1875 C-2.89790296 7.91043228 -2.89790296 7.91043228 -2 5 C-2.66 4.67 -3.32 4.34 -4 4 C-2.3125 1.9375 -2.3125 1.9375 0 0 Z " fill="#144F40" transform="translate(41,8)"/>
<path d="M0 0 C3.8597561 1.92987805 3.8597561 1.92987805 5.25 4.125 C5.875 7.375 5.875 7.375 5.25 11.125 C2.66573955 14.85299477 -0.07338125 17.66774034 -4.5 18.875 C-6.75 18.125 -6.75 18.125 -8.5625 16 C-9.99606685 12.52925921 -10.49241851 10.83709257 -9.75 7.125 C-7.16826735 3.47296922 -4.64077318 0.21094424 0 0 Z " fill="#124E3F" transform="translate(29.75,15.875)"/>
<path d="M0 0 C5.28 0 10.56 0 16 0 C16 6.27 16 12.54 16 19 C13.03 18.01 10.06 17.02 7 16 C5.625 12.125 5.625 12.125 5.328125 10 C4.87730829 7.2521648 3.49554032 5.31128958 2 3 C2 2.34 2 1.68 2 1 C1.34 0.67 0.68 0.34 0 0 Z " fill="#FCFCFC" transform="translate(104,0)"/>
<path d="M0 0 C1.32 0.66 2.64 1.32 4 2 C4 5.3 4 8.6 4 12 C4.99 12 5.98 12 7 12 C7.2475 11.360625 7.495 10.72125 7.75 10.0625 C9 8 9 8 13 7 C12.67 10.3 12.34 13.6 12 17 C10.68 17 9.36 17 8 17 C7.67 16.34 7.34 15.68 7 15 C4.69 15.66 2.38 16.32 0 17 C-2.13586678 13.79619983 -2.23132175 12.98060033 -2.125 9.3125 C-2.10695312 8.50425781 -2.08890625 7.69601563 -2.0703125 6.86328125 C-2.03550781 5.94095703 -2.03550781 5.94095703 -2 5 C-2.99 4.67 -3.98 4.34 -5 4 C-3.35 2.68 -1.7 1.36 0 0 Z " fill="#245B4C" transform="translate(53,17)"/>
<path d="M0 0 C3.09537351 1.06737018 3.98455997 1.97518567 5.75 4.8125 C6.94728978 7.86558893 7.28472808 9.77308179 7 13 C4.69 13 2.38 13 0 13 C-0.33 11.68 -0.66 10.36 -1 9 C-1.2475 9.94875 -1.495 10.8975 -1.75 11.875 C-3 15 -3 15 -5.125 16.375 C-5.74375 16.58125 -6.3625 16.7875 -7 17 C-8 16 -8 16 -8.4375 13.4375 C-7.71738031 7.77941675 -3.94492851 3.94492851 0 0 Z " fill="#114D3E" transform="translate(104,2)"/>
<path d="M0 0 C2.60332725 0.98489886 3.76027247 1.47139579 4.93359375 4.05859375 C5.09988281 4.84363281 5.26617187 5.62867188 5.4375 6.4375 C5.62183594 7.21996094 5.80617188 8.00242187 5.99609375 8.80859375 C6 11 6 11 4.703125 12.7734375 C2.40781961 14.42647853 0.76084288 14.22385213 -2 14 C-3.51047521 11.61704813 -4.09191411 10.501733 -3.57421875 7.67578125 C-3.28160156 6.89589844 -2.98898438 6.11601562 -2.6875 5.3125 C-2.40261719 4.52488281 -2.11773438 3.73726562 -1.82421875 2.92578125 C-1 1 -1 1 0 0 Z " fill="#185344" transform="translate(25,20)"/>
<path d="M0 0 C0.66 0.33 1.32 0.66 2 1 C2 4.63 2 8.26 2 12 C2.66 12 3.32 12 4 12 C3.25 13.9375 3.25 13.9375 2 16 C-0.0625 16.8125 -0.0625 16.8125 -2 17 C-3.87606211 15.12393789 -3.55879379 12.15091014 -3.8125 9.625 C-3.94269531 8.46226563 -4.07289062 7.29953125 -4.20703125 6.1015625 C-4 3 -4 3 -2.01171875 1.0859375 C-1.34785156 0.72757813 -0.68398437 0.36921875 0 0 Z " fill="#1A5344" transform="translate(91,17)"/>
<path d="M0 0 C0.66 0 1.32 0 2 0 C3 1 4 2 5 3 C7.09989652 4.17574711 7.09989652 4.17574711 9 5 C9 5.66 9 6.32 9 7 C6.77109005 8.11445498 5.46944894 8.16480286 3 8.1875 C1.948125 8.20876953 1.948125 8.20876953 0.875 8.23046875 C-1 8 -1 8 -3 6 C-2.63318342 3.06546739 -2.13562754 2.13562754 0 0 Z " fill="#104D3D" transform="translate(5,26)"/>
<path d="M0 0 C0.66 1.32 1.32 2.64 2 4 C0.71034824 5.37562854 -0.62689293 6.70766393 -2 8 C-2.66 8 -3.32 8 -4 8 C-4.33 7.34 -4.66 6.68 -5 6 C-5.66 5.67 -6.32 5.34 -7 5 C-9 4 -9 4 -10 2 C-6.3558226 -0.4294516 -4.28758728 -0.16179575 0 0 Z " fill="#20584A" transform="translate(17,10)"/>
<path d="M0 0 C2.38202314 0.69717751 4.39796142 1.54747857 6.5625 2.75 C4.8125 4.8125 4.8125 4.8125 2.5625 6.75 C0.5 6.5625 0.5 6.5625 -1.4375 5.75 C-2.4275 5.42 -3.4175 5.09 -4.4375 4.75 C-4.7675 3.76 -5.0975 2.77 -5.4375 1.75 C-2.4375 -0.25 -2.4375 -0.25 0 0 Z " fill="#1D5647" transform="translate(49.4375,8.25)"/>
<path d="M0 0 C-0.33 3.3 -0.66 6.6 -1 10 C-2.32 10 -3.64 10 -5 10 C-6.34261242 3.53104925 -6.34261242 3.53104925 -4.75 1.0625 C-3 0 -3 0 0 0 Z " fill="#0D4B3B" transform="translate(66,24)"/>
<path d="M0 0 C0.33 0 0.66 0 1 0 C1 2.31 1 4.62 1 7 C2.11375 6.95875 3.2275 6.9175 4.375 6.875 C8 7 8 7 10 9 C8.89591797 9.07347656 8.89591797 9.07347656 7.76953125 9.1484375 C6.79371094 9.22320312 5.81789063 9.29796875 4.8125 9.375 C3.84957031 9.44460937 2.88664062 9.51421875 1.89453125 9.5859375 C-1.01508938 10.00215853 -3.32890774 10.79874096 -6 12 C-5.38125 11.505 -4.7625 11.01 -4.125 10.5 C-1.25011778 7.11778563 -0.86548583 4.32742915 0 0 Z " fill="#A3BBB5" transform="translate(103,8)"/>
<path d="M0 0 C3.875 1.75 3.875 1.75 5 4 C5.039992 5.99960012 5.04346799 8.00047242 5 10 C1.125 8.25 1.125 8.25 0 6 C-0.039992 4.00039988 -0.04346799 1.99952758 0 0 Z " fill="#E6ECEB" transform="translate(25,20)"/>
<path d="M0 0 C2.97 0.33 5.94 0.66 9 1 C9.33 1.99 9.66 2.98 10 4 C8.02 4.99 6.04 5.98 4 7 C3.67 6.34 3.34 5.68 3 5 C3.33 4.34 3.66 3.68 4 3 C2.68 3 1.36 3 0 3 C0 2.01 0 1.02 0 0 Z " fill="#E4EBE9" transform="translate(45,13)"/>
<path d="M0 0 C0.350625 0.474375 0.70125 0.94875 1.0625 1.4375 C3.84163543 3.67873825 6.5144717 3.67117658 10 4 C10 4.33 10 4.66 10 5 C6.37 5.33 2.74 5.66 -1 6 C-0.67 4.02 -0.34 2.04 0 0 Z " fill="#DDE6E3" transform="translate(1,30)"/>
<path d="M0 0 C0 0.66 0 1.32 0 2 C-0.99 2.66 -1.98 3.32 -3 4 C-3.36460453 6.66653905 -3.36460453 6.66653905 -3.1875 9.625 C-3.16042969 10.62789062 -3.13335937 11.63078125 -3.10546875 12.6640625 C-3.07066406 13.43492188 -3.03585938 14.20578125 -3 15 C-3.33 15 -3.66 15 -4 15 C-4.144375 13.7625 -4.28875 12.525 -4.4375 11.25 C-4.78688502 8.43495501 -5.20379366 5.7298503 -6 3 C-2.25 0 -2.25 0 0 0 Z " fill="#437265" transform="translate(91,16)"/>
<path d="M0 0 C2.375 -0.125 2.375 -0.125 5 0 C7 2 7 2 7 5 C4.625 4.75 4.625 4.75 2 4 C0.6875 1.9375 0.6875 1.9375 0 0 Z " fill="#E9EFED" transform="translate(6,25)"/>
<path d="M0 0 C0.66 0 1.32 0 2 0 C2 1.65 2 3.3 2 5 C0.68 5.33 -0.64 5.66 -2 6 C-1.125 1.125 -1.125 1.125 0 0 Z " fill="#D0DCD9" transform="translate(67,24)"/>
<path d="M0 0 C0.33 0.99 0.66 1.98 1 3 C1.598125 2.649375 2.19625 2.29875 2.8125 1.9375 C5 1 5 1 8 2 C2.25 6 2.25 6 0 6 C0 4.02 0 2.04 0 0 Z " fill="#3A6B5E" transform="translate(97,21)"/>
</svg>
