<svg width="228" height="158" viewBox="0 0 228 158" fill="none" xmlns="http://www.w3.org/2000/svg">
<path opacity="0.1" d="M207.757 14.1649C220.929 27.3086 228 42.0502 228 65.9467C228 107.997 197.69 139.366 152 158C179.5 144.024 187.524 123.109 190.647 105.261C192.446 94.9793 179.512 84.8756 169.114 83.9682C146.045 81.9618 127.862 64.1685 127.862 42.0502C127.862 30.8978 132.577 20.2021 140.97 12.3162C149.364 4.43027 160.748 0 172.618 0C186.339 0 199.458 5.88702 207.757 14.1649ZM79.8831 14.1649C93.0542 27.3086 100.126 42.0502 100.126 65.9467C100.126 107.997 71.0228 139.366 25.3333 158C52.8126 144.034 60.3443 123.14 63.1154 105.301C64.7175 94.9867 51.6375 84.8756 41.2395 83.9682C18.1709 81.9618 0 64.1685 0 42.0502C0 30.8978 4.71535 20.2021 13.1087 12.3162C21.5021 4.43027 32.886 0 44.756 0C58.477 0 71.5969 5.88702 79.8959 14.1649H79.8831Z" fill="#030605"/>
</svg>
